<svg width="18" height="18" viewBox="0 0 18 18" fill="none" xmlns="http://www.w3.org/2000/svg">
<g clip-path="url(#clip0_1_24)">
<path d="M2 2.5C1.46957 2.5 0.960859 2.71071 0.585786 3.08579C0.210714 3.46086 0 3.96957 0 4.5L0 13.5C0 14.0304 0.210714 14.5391 0.585786 14.9142C0.960859 15.2893 1.46957 15.5 2 15.5H9V2.5H2Z" fill="#006233"/>
<path d="M16 2.5H9V15.5H16C16.5304 15.5 17.0391 15.2893 17.4142 14.9142C17.7893 14.5391 18 14.0304 18 13.5V4.5C18 3.96957 17.7893 3.46086 17.4142 3.08579C17.0391 2.71071 16.5304 2.5 16 2.5Z" fill="#EEEEEE"/>
<path d="M9.99999 12C8.34249 12 6.99999 10.6575 6.99999 9C6.99999 7.3425 8.34249 6 9.99999 6C10.655 6 11.26 6.2125 11.7535 6.569C11.4095 6.17757 10.9859 5.86401 10.5111 5.64923C10.0363 5.43446 9.52112 5.32341 8.99999 5.3235C8.02492 5.3235 7.08979 5.71085 6.40031 6.40032C5.71083 7.0898 5.32349 8.02493 5.32349 9C5.32342 9.48285 5.41847 9.96098 5.6032 10.4071C5.78793 10.8532 6.05873 11.2586 6.40013 11.6C6.74153 11.9415 7.14685 12.2123 7.59294 12.3971C8.03902 12.5819 8.51714 12.677 8.99999 12.677C10.0975 12.677 11.08 12.1935 11.7535 11.431C11.2438 11.8012 10.6299 12.0004 9.99999 12Z" fill="#D20F34"/>
<path d="M12.651 9.115L11.431 9.396L11.321 10.6425L10.677 9.5695L9.457 9.85L10.279 8.906L9.6355 7.8325L10.787 8.3225L11.609 7.378L11.499 8.625L12.651 9.115Z" fill="#D20F34"/>
</g>
<defs>
<clipPath id="clip0_1_24">
<rect width="18" height="18" fill="white"/>
</clipPath>
</defs>
</svg>
