<svg width="9" height="9" viewBox="0 0 9 9" fill="none" xmlns="http://www.w3.org/2000/svg">
<path d="M3.6486 3.4596C4.1355 3.4056 4.6395 3.4056 5.1264 3.4596C5.17278 3.46472 5.21611 3.48523 5.24947 3.51786C5.28283 3.55049 5.3043 3.59335 5.31045 3.6396C5.3685 4.1364 5.3685 4.6386 5.31045 5.1354C5.30428 5.18172 5.28274 5.22463 5.24929 5.25727C5.21584 5.2899 5.17241 5.31037 5.12595 5.3154C4.63498 5.36945 4.13957 5.36945 3.6486 5.3154C3.60222 5.31028 3.55889 5.28977 3.52553 5.25714C3.49217 5.22451 3.4707 5.18165 3.46455 5.1354C3.4064 4.6385 3.4064 4.1365 3.46455 3.6396C3.47072 3.59328 3.49226 3.55037 3.52571 3.51773C3.55916 3.4851 3.60214 3.46463 3.6486 3.4596Z" fill="black"/>
<path fill-rule="evenodd" clip-rule="evenodd" d="M5.7375 0C5.82701 0 5.91285 0.0355579 5.97615 0.0988514C6.03944 0.162145 6.075 0.247989 6.075 0.3375V1.65465C6.33252 1.7057 6.56893 1.83245 6.75397 2.01869C6.939 2.20493 7.06422 2.44216 7.1136 2.7H8.4375C8.52701 2.7 8.61285 2.73556 8.67615 2.79885C8.73944 2.86215 8.775 2.94799 8.775 3.0375C8.775 3.12701 8.73944 3.21285 8.67615 3.27615C8.61285 3.33944 8.52701 3.375 8.4375 3.375H7.1829C7.1994 3.6 7.21035 3.825 7.21575 4.05H7.9875C8.07701 4.05 8.16286 4.08556 8.22615 4.14885C8.28944 4.21214 8.325 4.29799 8.325 4.3875C8.325 4.47701 8.28944 4.56285 8.22615 4.62615C8.16286 4.68944 8.07701 4.725 7.9875 4.725H7.21575C7.21035 4.95 7.1994 5.175 7.1829 5.4H8.4375C8.52701 5.4 8.61285 5.43556 8.67615 5.49885C8.73944 5.56214 8.775 5.64799 8.775 5.7375C8.775 5.82701 8.73944 5.91285 8.67615 5.97615C8.61285 6.03944 8.52701 6.075 8.4375 6.075H7.1136C7.06422 6.33284 6.939 6.57007 6.75397 6.75631C6.56893 6.94255 6.33252 7.0693 6.075 7.12035V8.4375C6.075 8.52701 6.03944 8.61285 5.97615 8.67615C5.91285 8.73944 5.82701 8.775 5.7375 8.775C5.64799 8.775 5.56214 8.73944 5.49885 8.67615C5.43556 8.61285 5.4 8.52701 5.4 8.4375V7.1892C5.1756 7.2051 4.9506 7.2156 4.725 7.2207V7.9875C4.725 8.07701 4.68944 8.16286 4.62615 8.22615C4.56285 8.28944 4.47701 8.325 4.3875 8.325C4.29799 8.325 4.21214 8.28944 4.14885 8.22615C4.08556 8.16286 4.05 8.07701 4.05 7.9875V7.2207C3.82478 7.21548 3.59972 7.20498 3.375 7.1892V8.4375C3.375 8.52701 3.33944 8.61285 3.27615 8.67615C3.21285 8.73944 3.12701 8.775 3.0375 8.775C2.94799 8.775 2.86215 8.73944 2.79885 8.67615C2.73556 8.61285 2.7 8.52701 2.7 8.4375V7.12035C2.44248 7.0693 2.20607 6.94255 2.02103 6.75631C1.836 6.57007 1.71078 6.33284 1.6614 6.075H0.3375C0.247989 6.075 0.162145 6.03944 0.0988514 5.97615C0.0355579 5.91285 0 5.82701 0 5.7375C0 5.64799 0.0355579 5.56214 0.0988514 5.49885C0.162145 5.43556 0.247989 5.4 0.3375 5.4H1.5921C1.5756 5.175 1.5645 4.95 1.5588 4.725H0.7875C0.697989 4.725 0.612145 4.68944 0.548851 4.62615C0.485558 4.56285 0.45 4.47701 0.45 4.3875C0.45 4.29799 0.485558 4.21214 0.548851 4.14885C0.612145 4.08556 0.697989 4.05 0.7875 4.05H1.5588C1.5645 3.825 1.5756 3.6 1.5921 3.375H0.3375C0.247989 3.375 0.162145 3.33944 0.0988514 3.27615C0.0355579 3.21285 0 3.12701 0 3.0375C0 2.94799 0.0355579 2.86215 0.0988514 2.79885C0.162145 2.73556 0.247989 2.7 0.3375 2.7H1.6614C1.71078 2.44216 1.836 2.20493 2.02103 2.01869C2.20607 1.83245 2.44248 1.7057 2.7 1.65465V0.3375C2.7 0.247989 2.73556 0.162145 2.79885 0.0988514C2.86215 0.0355579 2.94799 0 3.0375 0C3.12701 0 3.21285 0.0355579 3.27615 0.0988514C3.33944 0.162145 3.375 0.247989 3.375 0.3375V1.5858C3.5994 1.5699 3.8244 1.5594 4.05 1.5543V0.7875C4.05 0.697989 4.08556 0.612145 4.14885 0.548851C4.21214 0.485558 4.29799 0.45 4.3875 0.45C4.47701 0.45 4.56285 0.485558 4.62615 0.548851C4.68944 0.612145 4.725 0.697989 4.725 0.7875V1.5543C4.9506 1.5594 5.1756 1.5699 5.4 1.5858V0.3375C5.4 0.247989 5.43556 0.162145 5.49885 0.0988514C5.56214 0.0355579 5.64799 0 5.7375 0ZM5.2011 2.78865C4.66036 2.72867 4.11464 2.72867 3.5739 2.78865C3.1698 2.83365 2.8422 3.15225 2.7945 3.5613C2.73028 4.11023 2.73028 4.66477 2.7945 5.2137C2.8422 5.6232 3.1698 5.9409 3.5739 5.98635C4.1103 6.0462 4.6647 6.0462 5.2011 5.98635C5.3992 5.96456 5.58408 5.87632 5.72561 5.73601C5.86714 5.59571 5.95699 5.4116 5.9805 5.2137C6.04485 4.6647 6.04485 4.1103 5.9805 3.5613C5.95699 3.3634 5.86714 3.17929 5.72561 3.03899C5.58408 2.89868 5.3992 2.81044 5.2011 2.78865Z" fill="black"/>
</svg>
