<svg width="10" height="9" viewBox="0 0 10 9" fill="none" xmlns="http://www.w3.org/2000/svg">
<path d="M8.66042 5.58745C8.66042 5.50789 8.6281 5.43158 8.57056 5.37532C8.51302 5.31906 8.43498 5.28745 8.3536 5.28745H7.12633C7.04496 5.28745 6.96692 5.31906 6.90938 5.37532C6.85184 5.43158 6.81951 5.50789 6.81951 5.58745V8.28745H6.20588V1.78745C6.20588 1.49625 6.20506 1.30745 6.18624 1.16905C6.16824 1.03905 6.1392 0.998251 6.11588 0.975451C6.09256 0.952651 6.05083 0.924251 5.91788 0.906651C5.77592 0.888251 5.58324 0.887451 5.28542 0.887451C4.9876 0.887451 4.79451 0.888251 4.65297 0.906651C4.52001 0.924251 4.47829 0.952651 4.45497 0.975451C4.43165 0.998251 4.4026 1.03905 4.3846 1.16905C4.36579 1.30785 4.36497 1.49625 4.36497 1.78745V8.28745H3.75133V3.58745C3.75133 3.50789 3.71901 3.43158 3.66147 3.37532C3.60393 3.31906 3.52589 3.28745 3.44451 3.28745H2.21724C2.13587 3.28745 2.05783 3.31906 2.00029 3.37532C1.94275 3.43158 1.91042 3.50789 1.91042 3.58745V8.28745H1.19451C1.11314 8.28745 1.0351 8.31906 0.97756 8.37532C0.920021 8.43158 0.887695 8.50789 0.887695 8.58745C0.887695 8.66702 0.920021 8.74332 0.97756 8.79958C1.0351 8.85584 1.11314 8.88745 1.19451 8.88745H9.37633C9.45771 8.88745 9.53575 8.85584 9.59329 8.79958C9.65083 8.74332 9.68315 8.66702 9.68315 8.58745C9.68315 8.50789 9.65083 8.43158 9.59329 8.37532C9.53575 8.31906 9.45771 8.28745 9.37633 8.28745H8.66042V5.58745Z" fill="black"/>
</svg>
