<svg width="10" height="10" viewBox="0 0 10 10" fill="none" xmlns="http://www.w3.org/2000/svg">
<path d="M0.712891 1.80525C0.712891 1.53051 0.779496 1.27935 0.912706 1.05178C1.04869 0.824217 1.23047 0.643828 1.45803 0.510618C1.6856 0.374633 1.93676 0.306641 2.2115 0.306641H8.21428C8.48902 0.306641 8.74018 0.374633 8.96775 0.510618C9.19531 0.643828 9.3757 0.824217 9.50891 1.05178C9.6449 1.27935 9.71289 1.53051 9.71289 1.80525V7.80803C9.71289 8.08277 9.6449 8.33393 9.50891 8.5615C9.3757 8.78906 9.19531 8.96945 8.96775 9.10266C8.74018 9.23865 8.48902 9.30664 8.21428 9.30664H2.2115C1.93676 9.30664 1.6856 9.23865 1.45803 9.10266C1.23047 8.96945 1.04869 8.78906 0.912706 8.5615C0.779496 8.33393 0.712891 8.08277 0.712891 7.80803V1.80525ZM2.2115 0.906086C1.96451 0.906086 1.75221 0.994892 1.57459 1.17251C1.39975 1.34734 1.31234 1.55826 1.31234 1.80525V3.00831H3.41456V0.906086H2.2115ZM3.71428 0.906086V3.00831H6.71567V0.906086H3.71428ZM7.01539 0.906086V3.00831H7.26932L6.71567 3.56612V3.30803H3.71428V4.72338C3.61437 4.70951 3.51446 4.71228 3.41456 4.73171V3.30803H1.31234V7.00044L3.13148 5.20627C3.25914 5.07861 3.41178 5.01478 3.58939 5.01478C3.76701 5.01201 3.92103 5.07167 4.05147 5.19378L4.6967 5.80988C4.76608 5.87648 4.83546 5.8751 4.90484 5.80572L9.09263 1.60544C9.04545 1.40562 8.94 1.23911 8.77626 1.1059C8.6153 0.972691 8.42797 0.906086 8.21428 0.906086H7.01539ZM3.48532 5.68499L1.31234 7.83717C1.32066 8.07861 1.41224 8.28398 1.58708 8.45326C1.76192 8.62255 1.97006 8.7072 2.2115 8.7072H3.41456V6.60498H2.98162L3.28551 6.30525H3.41456V6.18037L3.59356 6.00137L3.71428 6.11376V6.30525H3.91826L4.13056 6.50923C4.16941 6.54531 4.21104 6.57722 4.25544 6.60498H3.71428V8.7072H6.71567V6.60498H5.32112C5.37385 6.57167 5.42103 6.53421 5.46266 6.49258L5.64999 6.30525H6.71567V5.25622L7.01539 4.9565V6.30525H9.11345V2.45881L5.25452 6.27611C5.12686 6.401 4.97422 6.46483 4.79661 6.4676C4.619 6.47038 4.46636 6.41071 4.3387 6.2886L3.69346 5.68499C3.62131 5.61839 3.55193 5.61839 3.48532 5.68499ZM9.11345 6.60498H7.01539V8.7072H8.21428C8.46405 8.7072 8.67635 8.61839 8.85119 8.44078C9.02603 8.26594 9.11345 8.05502 9.11345 7.80803V6.60498Z" fill="black"/>
</svg>
