<svg width="20" height="17" viewBox="0 0 20 17" fill="none" xmlns="http://www.w3.org/2000/svg">
<g clip-path="url(#clip0_3_6)">
<path fill-rule="evenodd" clip-rule="evenodd" d="M7.14167 1.037C7.7 1.2648 8.175 1.5147 8.58667 1.7629V16.0225C7.95124 15.5362 7.25653 15.1361 6.52 14.8325C5.295 14.3327 3.52833 13.9196 0.833333 13.9196C0.61232 13.9196 0.400358 13.83 0.244078 13.6706C0.0877973 13.5112 0 13.295 0 13.0696V0.85C0 0.624566 0.0877973 0.408365 0.244078 0.248959C0.400358 0.0895535 0.61232 0 0.833333 0C3.7 0 5.68333 0.4403 7.14167 1.037ZM12.735 14.8325C11.835 15.2014 11.2033 15.6247 10.6683 16.0208V1.7629C11.08 1.5147 11.5567 1.2648 12.115 1.037C13.5733 0.4403 15.5567 0 18.4233 0C18.6443 0 18.8563 0.0895535 19.0126 0.248959C19.1689 0.408365 19.2567 0.624566 19.2567 0.85V13.0696C19.2567 13.295 19.1689 13.5112 19.0126 13.6706C18.8563 13.83 18.6443 13.9196 18.4233 13.9196C15.7283 13.9196 13.9617 14.331 12.735 14.8325Z" fill="black"/>
</g>
<defs>
<clipPath id="clip0_3_6">
<rect width="20" height="17" fill="white"/>
</clipPath>
</defs>
</svg>
