<svg width="24" height="18" viewBox="0 0 24 18" fill="none" xmlns="http://www.w3.org/2000/svg">
<path d="M5.45456 18V8.7296L2.57878 6.09938L0 4.63979V16.364C0 17.2692 0.733594 18 1.63641 18H5.45456Z" fill="#4285F4"/>
<path d="M18.5454 18H22.3636C23.2691 18 24 17.2665 24 16.364V4.63989L21.0791 6.31167L18.5454 8.7296V18Z" fill="#34A853"/>
<path d="M5.45456 8.7296L5.06325 5.10739L5.45456 1.64057L12 6.54842L18.5454 1.64057L18.9832 4.92022L18.5454 8.7296L12 13.6374L5.45456 8.7296Z" fill="#EA4335"/>
<path d="M18.5454 1.64057V8.7296L24 4.63989V2.45852C24 0.435449 21.69 -0.717844 20.0728 0.495433L18.5454 1.64057Z" fill="#FBBC04"/>
<path d="M0 4.63979L5.45456 8.7296V1.64057L3.92719 0.495447C2.30719 -0.717924 0 0.435463 0 2.45844V4.63979Z" fill="#C5221F"/>
</svg>
