<svg width="16" height="16" viewBox="0 0 16 16" fill="none" xmlns="http://www.w3.org/2000/svg">
<g clip-path="url(#clip0_1_2)">
<path d="M9.5 13.5H13.5C13.9943 13.5 14.4143 13.3885 14.763 13.1943L9.5 10.0548V13.5ZM15.915 11.5525C15.972 11.2982 16.001 11.029 16.001 10.7498V9.49975H12.4735L15.914 11.5525M0.0875032 4.43975C0.0281817 4.70572 -0.00116783 4.9775 3.18326e-06 5.25V6.5H3.541L0.0875032 4.43975ZM6.5 2.5H2.5C2.00925 2.5 1.592 2.61 1.24475 2.8015L6.5 5.9365V2.5ZM1.26075 13.2065C1.60475 13.3925 2.0165 13.5 2.5 13.5H6.5V10.081L1.26075 13.2065ZM3.18326e-06 9.5V10.75C3.18326e-06 11.0378 0.0305032 11.315 0.0907532 11.5758L3.5705 9.5H3.18326e-06ZM14.7788 2.81375C14.4273 2.61425 14.0015 2.5 13.5 2.5H9.5V5.96275L14.7788 2.81375ZM16 6.5V5.25C16 4.9765 15.9718 4.71275 15.917 4.46325L12.503 6.5H16Z" fill="#2E3192"/>
<path d="M12.503 6.5L15.917 4.46325C15.7605 3.74725 15.3795 3.1545 14.7788 2.81375L9.5 5.96275V2.5H9V7H16V6.5H12.503ZM0 9V9.5H3.5705L0.09075 11.5758C0.256 12.2895 0.6485 12.8755 1.26075 13.2065L6.5 10.081V13.5H7V9H0ZM16 9H9V13.5H9.5V10.0548L14.763 13.1945C15.3682 12.8575 15.754 12.268 15.914 11.553L12.4735 9.5H16V9ZM6.5 2.5V5.9365L1.24475 2.8015C0.63725 3.1365 0.249 3.725 0.08725 4.43975L3.541 6.5H0V7H7V2.5H6.5Z" fill="#E6E7E8"/>
<path d="M9 7V2.5H7V7H0V9H7V13.5H9V9H16V7H9Z" fill="#BE1E2D"/>
<path d="M5.48449 6.5L0.471988 3.50775C0.364238 3.66775 0.277738 3.84375 0.206238 4.03125L4.34299 6.5H5.48374M15.7725 12.0225L11.5692 9.5H10.4052L15.4835 12.5547C15.601 12.39 15.698 12.2116 15.7725 12.0235M15.1797 3.09775L9.49224 6.5L10.647 6.50075L15.5547 3.5625C15.4452 3.36325 15.3297 3.23475 15.1797 3.09775ZM0.453238 12.4687C0.565706 12.64 0.70104 12.7951 0.855488 12.9297L6.51574 9.5H5.37499L0.453238 12.4687Z" fill="#BE1E2D"/>
</g>
<defs>
<clipPath id="clip0_1_2">
<rect width="16" height="16" fill="white"/>
</clipPath>
</defs>
</svg>
