<svg width="16" height="16" viewBox="0 0 16 16" fill="none" xmlns="http://www.w3.org/2000/svg">
<path d="M16 8C16 12.4183 12.4183 16 8 16C3.58172 16 0 12.4183 0 8C0 3.58172 3.58172 0 8 0C12.4183 0 16 3.58172 16 8Z" fill="white"/>
<path fill-rule="evenodd" clip-rule="evenodd" d="M8.00026 4C7.70972 4 7.42281 4.0646 7.16031 4.18912L2.2866 6.49809C2.19706 6.54034 2.12208 6.60823 2.07117 6.69315C2.02026 6.77807 1.9957 6.87619 2.00062 6.97508V10C2.00062 10.1326 2.05329 10.2598 2.14705 10.3536C2.24082 10.4474 2.36799 10.5 2.50059 10.5C2.63319 10.5 2.76036 10.4474 2.85412 10.3536C2.94788 10.2598 3.00056 10.1326 3.00056 10V7.75607L7.12831 9.80404C7.39927 9.93865 7.69771 10.0087 8.00026 10.0087C8.30281 10.0087 8.60125 9.93865 8.87221 9.80404L13.7219 7.39808C13.8061 7.35639 13.8768 7.29183 13.926 7.2118C13.9752 7.13177 14.0008 7.03951 14 6.94558C13.9991 6.85165 13.9719 6.75985 13.9213 6.68071C13.8707 6.60156 13.7988 6.53827 13.7139 6.49809L8.84021 4.18912C8.5777 4.0646 8.2908 4 8.00026 4ZM4.0005 11V9.36905L6.68434 10.7C7.0933 10.903 7.54369 11.0087 8.00026 11.0087C8.45683 11.0087 8.90721 10.903 9.31618 10.7L12 9.36805V11C12.0001 11.0657 11.9873 11.1308 11.9623 11.1916C11.9372 11.2523 11.9004 11.3075 11.854 11.354L11.852 11.355L11.829 11.378L11.769 11.434C11.4558 11.7135 11.117 11.9629 10.7571 12.179C10.0881 12.58 9.12319 13 8.00026 13C6.87732 13 5.91338 12.58 5.24342 12.179C4.90644 11.976 4.63646 11.774 4.44947 11.621C4.35481 11.543 4.28248 11.4807 4.23248 11.434L4.17249 11.378L4.14949 11.357L4.14749 11.354C4.10091 11.3076 4.06395 11.2524 4.03872 11.1917C4.0135 11.1309 4.00051 11.0658 4.0005 11ZM7.74361 7.45508V7.65507L8.06859 7.62174V7.50008C8.06859 7.37508 8.09525 7.26841 8.14525 7.18008C8.19691 7.08841 8.26024 7.00675 8.33857 6.93342L8.56356 6.70675C8.64033 6.62811 8.70543 6.53887 8.75688 6.44176C8.80854 6.34176 8.83354 6.22009 8.83354 6.07676C8.83354 5.85177 8.75188 5.67177 8.59022 5.53844C8.4269 5.40177 8.20191 5.33344 7.91026 5.33344C7.78064 5.33371 7.65148 5.34881 7.52529 5.37844C7.40018 5.40826 7.27966 5.45479 7.16697 5.51677L7.21864 5.81677C7.34363 5.76177 7.46029 5.72177 7.56862 5.69843C7.68028 5.67343 7.7836 5.66177 7.88026 5.66177C8.09692 5.66177 8.25024 5.70677 8.33857 5.79843C8.38462 5.84702 8.42045 5.90437 8.44393 5.96707C8.4674 6.02976 8.47805 6.09654 8.47523 6.16343C8.47523 6.24676 8.44856 6.32343 8.3969 6.39676C8.34383 6.47447 8.28357 6.54701 8.21691 6.61342C8.19778 6.63392 8.17841 6.65454 8.15885 6.67535C8.10684 6.73069 8.05355 6.7874 8.00026 6.84675C7.9286 6.92675 7.86693 7.01675 7.81694 7.11675C7.7686 7.21341 7.74361 7.32674 7.74361 7.45508ZM7.71028 8.58006C7.76361 8.63839 7.83027 8.66673 7.91026 8.66673C7.98693 8.66673 8.05359 8.63839 8.10692 8.58006C8.16191 8.52173 8.18858 8.4534 8.18858 8.37006C8.18858 8.2884 8.16191 8.2184 8.10692 8.16007C8.05359 8.1034 7.98693 8.0734 7.91026 8.0734C7.83027 8.0734 7.76361 8.1034 7.71028 8.16007C7.65528 8.2184 7.62695 8.28673 7.62695 8.37006C7.62636 8.40883 7.63341 8.44732 7.64771 8.48336C7.66201 8.51939 7.68327 8.55225 7.71028 8.58006Z" fill="black"/>
</svg>
