<svg width="9" height="7" viewBox="0 0 9 7" fill="none" xmlns="http://www.w3.org/2000/svg">
<path fill-rule="evenodd" clip-rule="evenodd" d="M4.50019 0C4.28229 0 4.06711 0.0502433 3.87023 0.147094L0.21495 1.94296C0.147796 1.97582 0.0915622 2.02863 0.0533775 2.09467C0.0151929 2.16072 -0.00322356 2.23704 0.000462381 2.31395V4.6667C0.000462381 4.76984 0.0399689 4.86875 0.110291 4.94168C0.180613 5.01461 0.27599 5.05558 0.37544 5.05558C0.47489 5.05558 0.570267 5.01461 0.640589 4.94168C0.710911 4.86875 0.750418 4.76984 0.750418 4.6667V2.92139L3.84623 4.51426C4.04945 4.61895 4.27328 4.67343 4.50019 4.67343C4.72711 4.67343 4.95094 4.61895 5.15415 4.51426L8.79144 2.64295C8.85457 2.61052 8.90761 2.56031 8.9445 2.49807C8.98138 2.43582 9.00061 2.36406 8.99998 2.291C8.99936 2.21795 8.9789 2.14655 8.94096 2.08499C8.90301 2.02344 8.84911 1.97421 8.78544 1.94296L5.13016 0.147094C4.93328 0.0502433 4.7181 0 4.50019 0ZM1.50037 5.44447V4.17593L3.51325 5.21114C3.81998 5.36902 4.15776 5.45118 4.50019 5.45118C4.84262 5.45118 5.18041 5.36902 5.48713 5.21114L7.50001 4.17515V5.44447C7.5001 5.49557 7.49048 5.54619 7.47169 5.59343C7.4529 5.64067 7.42532 5.68361 7.39052 5.7198L7.38902 5.72057L7.37177 5.73846L7.32677 5.78202C7.09185 5.9994 6.83775 6.19339 6.56782 6.36145C6.0661 6.67334 5.34239 7 4.50019 7C3.65799 7 2.93504 6.67334 2.43257 6.36145C2.17983 6.20357 1.97734 6.04646 1.8371 5.92746C1.76611 5.86679 1.71186 5.81831 1.67436 5.78202L1.62937 5.73846L1.61212 5.72213L1.61062 5.7198C1.57568 5.68368 1.54796 5.64077 1.52904 5.59352C1.51013 5.54628 1.50038 5.49562 1.50037 5.44447ZM4.3077 2.68728V2.84284L4.55144 2.81691V2.72228C4.55144 2.62506 4.57144 2.5421 4.60894 2.4734C4.64768 2.4021 4.69518 2.33858 4.75393 2.28155L4.92267 2.10525C4.98025 2.04409 5.02907 1.97468 5.06766 1.89914C5.10641 1.82137 5.12516 1.72674 5.12516 1.61526C5.12516 1.44026 5.06391 1.30026 4.94267 1.19656C4.82017 1.09027 4.65143 1.03712 4.4327 1.03712C4.33548 1.03733 4.23861 1.04907 4.14396 1.07212C4.05014 1.09532 3.95975 1.1315 3.87523 1.17971L3.91398 1.41304C4.00772 1.37026 4.09522 1.33915 4.17646 1.321C4.26021 1.30156 4.3377 1.29249 4.4102 1.29249C4.57269 1.29249 4.68768 1.32749 4.75393 1.39878C4.78847 1.43657 4.81534 1.48118 4.83295 1.52994C4.85055 1.57871 4.85853 1.63064 4.85642 1.68267C4.85642 1.74748 4.83642 1.80711 4.79768 1.86414C4.75787 1.92458 4.71268 1.981 4.66268 2.03266C4.64834 2.0486 4.63381 2.06464 4.61914 2.08083C4.58013 2.12387 4.54016 2.16798 4.50019 2.21414C4.44645 2.27636 4.4002 2.34636 4.3627 2.42414C4.32645 2.49932 4.3077 2.58747 4.3077 2.68728ZM4.28271 3.56227C4.3227 3.60764 4.3727 3.62968 4.4327 3.62968C4.49019 3.62968 4.54019 3.60764 4.58019 3.56227C4.62144 3.5169 4.64143 3.46375 4.64143 3.39894C4.64143 3.33542 4.62144 3.28098 4.58019 3.23561C4.54019 3.19153 4.49019 3.1682 4.4327 3.1682C4.3727 3.1682 4.3227 3.19153 4.28271 3.23561C4.24146 3.28098 4.22021 3.33412 4.22021 3.39894C4.21977 3.42909 4.22506 3.45903 4.23578 3.48705C4.24651 3.51508 4.26245 3.54064 4.28271 3.56227Z" fill="black"/>
</svg>
