<svg width="10" height="10" viewBox="0 0 10 10" fill="none" xmlns="http://www.w3.org/2000/svg">
<path d="M6.2157 2.23439C6.27034 2.17481 6.29766 2.10247 6.29766 2.01736C6.29766 1.93225 6.27034 1.85991 6.2157 1.80033C6.0908 1.66415 5.9425 1.55635 5.77077 1.47691C5.60165 1.39464 5.42081 1.3535 5.22827 1.3535C5.03573 1.3535 4.8549 1.39464 4.68577 1.47691C4.51665 1.55635 4.36964 1.66415 4.24475 1.80033C4.19011 1.85991 4.16279 1.93225 4.16279 2.01736C4.16279 2.10247 4.19011 2.17481 4.24475 2.23439C4.29939 2.29397 4.36444 2.32376 4.43989 2.32376C4.51795 2.32376 4.5856 2.29397 4.64284 2.23439C4.80416 2.0585 4.9993 1.97055 5.22827 1.97055C5.45724 1.97055 5.65368 2.0585 5.8176 2.23439C5.87224 2.29397 5.93859 2.32376 6.01665 2.32376C6.09471 2.32376 6.16106 2.29397 6.2157 2.23439ZM2.949 1.94076C3.01665 1.89821 3.0882 1.88828 3.16366 1.91097C3.23911 1.93083 3.29636 1.97764 3.33538 2.0514C3.37441 2.12517 3.38352 2.20318 3.3627 2.28546C3.34449 2.36489 3.30156 2.42731 3.23391 2.4727C3.03356 2.59753 2.85533 2.75498 2.69922 2.94506C2.5431 3.13231 2.41691 3.34083 2.32064 3.57062C2.22177 3.8061 2.15932 4.05292 2.1333 4.31109C2.1255 4.3962 2.09037 4.4657 2.02792 4.51961C1.96808 4.57067 1.89913 4.59195 1.82107 4.58344C1.74562 4.57493 1.68317 4.53805 1.63374 4.4728C1.5843 4.40471 1.56479 4.32811 1.57519 4.243C1.60642 3.91958 1.68447 3.61034 1.80936 3.31529C1.92905 3.02876 2.08647 2.76775 2.28161 2.53228C2.47675 2.29681 2.69922 2.09963 2.949 1.94076ZM7.19922 5.36645C7.19922 5.49412 7.15759 5.60335 7.07433 5.69413C6.99106 5.78208 6.89219 5.82605 6.77771 5.82605H5.69271C5.75776 5.67569 5.79028 5.52249 5.79028 5.36645C5.79028 5.28134 5.76296 5.209 5.70832 5.14942C5.65368 5.08985 5.58734 5.06006 5.50928 5.06006C5.43382 5.06006 5.36747 5.08985 5.31023 5.14942C5.25559 5.209 5.22827 5.28134 5.22827 5.36645C5.22827 5.49412 5.18664 5.60335 5.10338 5.69413C5.02272 5.78208 4.92385 5.82605 4.80676 5.82605H4.19401C4.11596 5.82605 4.04961 5.85584 3.99497 5.91542C3.94033 5.97499 3.91301 6.04734 3.91301 6.13245C3.91301 6.21756 3.94033 6.2899 3.99497 6.34948C4.04961 6.40906 4.11596 6.43885 4.19401 6.43885H5.93079C6.04787 6.43885 6.14675 6.48424 6.2274 6.57502C6.31067 6.66581 6.3536 6.77361 6.3562 6.89844C6.3562 6.98355 6.38352 7.05731 6.43816 7.11973C6.4928 7.17931 6.55915 7.20909 6.63721 7.20909C6.71266 7.20909 6.77771 7.17931 6.83235 7.11973C6.88959 7.05731 6.91821 6.98355 6.91821 6.89844C6.91821 6.73957 6.88439 6.58495 6.81674 6.43459C6.99106 6.42892 7.14978 6.37785 7.29289 6.28139C7.43599 6.1821 7.54917 6.05301 7.63243 5.89414C7.7183 5.73527 7.76123 5.55937 7.76123 5.36645C7.76123 5.28134 7.73391 5.209 7.67927 5.14942C7.62463 5.08985 7.55828 5.06006 7.48022 5.06006C7.40217 5.06006 7.33582 5.08985 7.28118 5.14942C7.22654 5.209 7.19922 5.28134 7.19922 5.36645ZM9.44727 5.12389V5.82605C9.44727 5.83456 9.44727 5.84591 9.44727 5.86009C9.44466 5.87144 9.44336 5.88137 9.44336 5.88988C9.44596 5.90691 9.44727 5.91825 9.44727 5.92393C9.44727 5.94946 9.44727 5.9679 9.44727 5.97925C9.44727 5.99911 9.44206 6.0289 9.43165 6.06862C9.42385 6.14805 9.41344 6.22607 9.40043 6.30267C9.39002 6.37927 9.37441 6.45445 9.3536 6.52821C9.27034 6.83461 9.13764 7.11122 8.95551 7.35804C8.77597 7.60202 8.55871 7.80203 8.30373 7.95807C8.05134 8.1141 7.77684 8.2134 7.48022 8.25595V9.07301C7.48022 9.17515 7.43599 9.24607 7.34753 9.28579C7.26166 9.32551 7.18621 9.30849 7.12116 9.23472L6.24302 8.28149H4.24475C3.95594 8.28149 3.68794 8.21482 3.44076 8.08148C3.19618 7.94814 2.98803 7.76657 2.8163 7.53677C2.64718 7.30413 2.53139 7.04029 2.46895 6.74524H2.11769C1.81067 6.74524 1.53096 6.66439 1.27858 6.50268C1.02619 6.33813 0.824542 6.11826 0.673632 5.84307C0.522721 5.56505 0.447266 5.25865 0.447266 4.92388C0.447266 4.28555 0.556546 3.68836 0.775106 3.13231C0.996268 2.57341 1.30069 2.08261 1.68838 1.6599C2.07606 1.23718 2.52489 0.906669 3.03486 0.66836C3.54744 0.427214 4.09644 0.306641 4.68187 0.306641H5.02923C5.59644 0.306641 6.13113 0.415866 6.6333 0.634316C7.13547 0.849929 7.583 1.15065 7.97589 1.53649C8.37138 1.92232 8.69401 2.37341 8.9438 2.88974C9.19618 3.40608 9.3536 3.96497 9.41604 4.56642C9.42645 4.6572 9.43426 4.7494 9.43946 4.84303C9.44466 4.93381 9.44727 5.02743 9.44727 5.12389ZM8.815 6.35374C8.85403 6.20905 8.87615 6.05443 8.88135 5.88988C8.87094 5.67427 8.82541 5.47284 8.74475 5.2856C8.66669 5.09552 8.56262 4.92955 8.43252 4.7877C8.29202 4.63451 8.1281 4.51393 7.94076 4.42598C7.75342 4.33804 7.55308 4.29406 7.33972 4.29406C7.32151 4.29406 7.29549 4.28839 7.26166 4.27704H7.25776C7.09904 4.42457 6.91821 4.54088 6.71526 4.62599C6.51492 4.7111 6.30156 4.75366 6.07519 4.75366C5.99714 4.75366 5.92949 4.72387 5.87224 4.66429C5.8176 4.60472 5.79028 4.53237 5.79028 4.44726C5.79028 4.36215 5.8176 4.28981 5.87224 4.23023C5.92949 4.17065 5.99714 4.14086 6.07519 4.14086C6.24952 4.14086 6.41344 4.1054 6.56695 4.03448C6.72047 3.96071 6.85446 3.86142 6.96895 3.73659C7.08343 3.61176 7.1732 3.46566 7.23825 3.29827C7.3059 3.13089 7.33972 2.95074 7.33972 2.75782C7.33972 2.67555 7.36704 2.60462 7.42168 2.54504C7.47632 2.48263 7.54267 2.45142 7.62073 2.45142C7.69878 2.45142 7.76513 2.48263 7.81977 2.54504C7.87441 2.60462 7.90173 2.67555 7.90173 2.75782C7.90173 3.09826 7.82758 3.41601 7.67927 3.71106C7.89783 3.75078 8.10338 3.82454 8.29592 3.93234C8.48846 4.04015 8.66149 4.17491 8.815 4.33662C8.72914 3.85149 8.57302 3.40182 8.34666 2.98762C8.12029 2.57058 7.83799 2.20744 7.49974 1.89821C7.16149 1.58897 6.78291 1.34924 6.364 1.17902C5.9451 1.00596 5.50017 0.919436 5.02923 0.919436H4.68187C4.1745 0.919436 3.69835 1.02441 3.25342 1.23434C2.8085 1.44428 2.41951 1.73082 2.08647 2.09396C1.75342 2.4571 1.49063 2.88123 1.29809 3.36636C1.10555 3.85149 1.00928 4.37066 1.00928 4.92388C1.00928 5.09126 1.0379 5.24872 1.09514 5.39624C1.15498 5.54093 1.23434 5.6686 1.33322 5.77924C1.43469 5.88988 1.55178 5.97641 1.68447 6.03883C1.81977 6.10124 1.96418 6.13245 2.11769 6.13245H2.43773C2.46895 5.90549 2.53009 5.69129 2.62116 5.48986C2.71223 5.28844 2.82801 5.10829 2.96851 4.94941C2.9477 4.82458 2.89566 4.71678 2.8124 4.62599C2.75776 4.56642 2.73044 4.49407 2.73044 4.40896C2.73044 4.32385 2.75776 4.25151 2.8124 4.19193C2.86964 4.13235 2.93599 4.10256 3.01145 4.10256C3.0895 4.10256 3.15585 4.13235 3.21049 4.19193C3.30416 4.29406 3.38092 4.41605 3.44076 4.55791C3.58126 4.4728 3.73087 4.40754 3.88959 4.36215C4.04831 4.31676 4.21353 4.29406 4.38525 4.29406C4.46331 4.29406 4.52966 4.32385 4.5843 4.38343C4.63894 4.44301 4.66626 4.51535 4.66626 4.60046C4.66626 4.68557 4.63894 4.75792 4.5843 4.81749C4.52966 4.87707 4.46331 4.90686 4.38525 4.90686C4.19011 4.90686 4.00668 4.948 3.83495 5.03027C3.66583 5.1097 3.51752 5.21893 3.39002 5.35794C3.26773 5.49128 3.17016 5.64732 3.09731 5.82605C3.02706 6.00195 2.98933 6.19061 2.98413 6.39203V6.41331C3.00494 6.64595 3.07259 6.85731 3.18707 7.04739C3.30416 7.23747 3.45377 7.38925 3.6359 7.50273C3.82064 7.61337 4.02359 7.66869 4.24475 7.66869H7.19922C7.4542 7.66869 7.69098 7.61195 7.90954 7.49847C8.1281 7.38499 8.31544 7.22895 8.47155 7.03036C8.63027 6.83177 8.74475 6.60623 8.815 6.35374Z" fill="black"/>
</svg>
