<svg width="10" height="9" viewBox="0 0 10 9" fill="none" xmlns="http://www.w3.org/2000/svg">
<path d="M1.46018 5.95197C1.32936 5.95197 1.21637 5.90643 1.12123 5.81536C1.02609 5.72429 0.978516 5.61472 0.978516 5.48665V0.718243C0.978516 0.550332 1.04095 0.406611 1.16583 0.28708C1.29368 0.164704 1.44531 0.103516 1.62074 0.103516H5.15741C5.3358 0.103516 5.48744 0.164704 5.61231 0.28708C5.73719 0.406611 5.79963 0.550332 5.79963 0.718243V1.02561H7.08853C7.26395 1.02561 7.4141 1.0868 7.53897 1.20917C7.66682 1.3287 7.73075 1.47242 7.73075 1.64034V2.25933H9.3363C9.51469 2.25933 9.66633 2.3191 9.7912 2.43863C9.91608 2.55816 9.97852 2.7033 9.97852 2.87406V7.48879H5.63907C5.59447 7.48879 5.55582 7.50302 5.52311 7.53148C5.49338 7.56278 5.47852 7.59978 5.47852 7.64247C5.47852 7.68516 5.49338 7.72073 5.52311 7.74919C5.55582 7.7805 5.59447 7.79615 5.63907 7.79615H9.95176C9.91905 7.88438 9.86107 7.95695 9.77782 8.01387C9.69457 8.07363 9.60091 8.10352 9.49685 8.10352H5.63907C5.50527 8.10352 5.39081 8.05798 5.29566 7.96691C5.20349 7.87868 5.15741 7.77054 5.15741 7.64247V6.87406H3.3913C3.2575 6.87406 3.14304 6.82852 3.04789 6.73745C2.95572 6.64638 2.90964 6.53824 2.90964 6.41301V5.95197H1.46018ZM5.77287 5.64034C5.74016 5.73141 5.68218 5.80682 5.59893 5.86659C5.51568 5.92351 5.42202 5.95197 5.31796 5.95197H7.40964V1.64034C7.40964 1.5578 7.37693 1.48665 7.31152 1.42689C7.24908 1.36428 7.17475 1.33297 7.08853 1.33297H5.79963V5.33297H1.46018C1.41558 5.33297 1.37693 5.34862 1.34422 5.37993C1.31449 5.40839 1.29963 5.44396 1.29963 5.48665C1.29963 5.52934 1.31449 5.56634 1.34422 5.59765C1.37693 5.62611 1.41558 5.64034 1.46018 5.64034H5.77287ZM3.23075 5.95197H3.3913C3.33481 5.95197 3.28129 5.96051 3.23075 5.97758V5.95197ZM5.47852 5.02561V0.718243C5.47852 0.632865 5.4473 0.560293 5.38486 0.500527C5.32242 0.440762 5.2466 0.41088 5.15741 0.41088H1.94185V5.02561H5.47852ZM5.47852 6.87406V7.20704C5.53203 7.18996 5.58555 7.18142 5.63907 7.18142H9.65741V2.87406C9.65741 2.78868 9.62619 2.71611 9.56375 2.65634C9.50131 2.59658 9.42549 2.5667 9.3363 2.5667H7.73075V6.25933H3.3913C3.3467 6.25933 3.30805 6.27498 3.27534 6.30629C3.24561 6.33475 3.23075 6.37032 3.23075 6.41301C3.23075 6.4557 3.24561 6.4927 3.27534 6.52401C3.30805 6.55247 3.3467 6.5667 3.3913 6.5667H7.70399C7.66831 6.65492 7.60884 6.72892 7.52559 6.78868C7.44531 6.8456 7.35314 6.87406 7.24908 6.87406H5.47852Z" fill="black"/>
</svg>
