<svg width="9" height="9" viewBox="0 0 9 9" fill="none" xmlns="http://www.w3.org/2000/svg">
<path fill-rule="evenodd" clip-rule="evenodd" d="M0 3.45086C0.0952962 2.54513 0.507482 1.70219 1.16381 1.07079C1.82014 0.439404 2.67841 0.0601605 3.58714 0C3.56508 0.0176776 3.54503 0.0377266 3.52736 0.0597857C2.73813 1.03029 2.24513 2.20757 2.10729 3.45086H0ZM2.34771 5.72786C2.34771 5.75614 2.34879 5.78421 2.35093 5.81207V7.41664C1.7114 7.14897 1.15567 6.71414 0.742037 6.15776C0.328401 5.60139 0.0720958 4.94396 0 4.25443H2.10729C2.15421 4.67871 2.24229 5.09657 2.37086 5.50093C2.35647 5.57553 2.34873 5.65189 2.34771 5.72786ZM2.91664 4.25571H4.04164L3.02593 4.69543L2.99314 4.71021C2.96138 4.55959 2.93629 4.40839 2.91664 4.25571ZM7.68021 3.45214H5.57036C5.43306 2.20825 4.94026 1.03026 4.15093 0.0591429C4.13301 0.0372737 4.11275 0.0174402 4.0905 0C4.99969 0.0595773 5.85857 0.438562 6.51543 1.07001C7.17228 1.70145 7.58483 2.54472 7.68021 3.45086V3.45214ZM2.91664 3.45214H4.76164C4.64955 2.57072 4.3337 1.72752 3.83914 0.989357C3.34468 1.72733 3.02884 2.57094 2.91664 3.45214ZM6.20357 4.31357C6.1595 4.29465 6.11204 4.28489 6.06407 4.28489C6.01611 4.28489 5.96864 4.29465 5.92457 4.31357L3.36986 5.42057C3.34344 5.4323 3.31843 5.44697 3.29529 5.46429C3.22708 5.50229 3.1703 5.55787 3.13084 5.62525C3.09139 5.69263 3.0707 5.76935 3.07093 5.84743V7.794C3.07093 7.91036 3.11715 8.02196 3.19944 8.10424C3.28172 8.18652 3.39332 8.23275 3.50968 8.23275C3.62604 8.23275 3.73764 8.18652 3.81992 8.10424C3.9022 8.02196 3.94843 7.91036 3.94843 7.794V6.31543L5.92457 7.17107C6.01393 7.20964 6.11486 7.20964 6.20357 7.17107L8.75829 6.06471C8.8211 6.0375 8.87459 5.99251 8.91216 5.93529C8.94973 5.87806 8.96975 5.8111 8.96975 5.74264C8.96975 5.67419 8.94973 5.60722 8.91216 5.55C8.87459 5.49277 8.8211 5.44779 8.75829 5.42057L6.20357 4.31357ZM4.31807 7.21286L5.61922 7.77664C5.75954 7.83741 5.91083 7.86877 6.06375 7.86877C6.21667 7.86877 6.36796 7.83741 6.50829 7.77664L7.80943 7.21286V8.08586C7.80943 8.163 7.785 8.23757 7.73872 8.298L7.73743 8.29993L7.73614 8.30121L7.73357 8.30507L7.72586 8.31471C7.69281 8.35453 7.65739 8.39231 7.61979 8.42786C7.54907 8.49471 7.44621 8.58021 7.30929 8.66443C7.03221 8.83414 6.62079 8.99486 6.06407 8.99486C5.50736 8.99486 5.09593 8.83414 4.8195 8.66379C4.67521 8.57437 4.54336 8.46629 4.42736 8.34236L4.40357 8.31407L4.39586 8.30443L4.39329 8.30057L4.392 8.29929V8.298H4.39071C4.34494 8.23697 4.32014 8.16278 4.32 8.0865L4.31807 7.21286Z" fill="black"/>
</svg>
