<svg width="20" height="19" viewBox="0 0 20 19" fill="none" xmlns="http://www.w3.org/2000/svg">
<g clip-path="url(#clip0_3_4)">
<path d="M6.08568 2.23035C5.98334 2.18761 5.8903 2.12453 5.81195 2.04475C5.7336 1.96497 5.6715 1.87009 5.62925 1.76559L4.94996 0.187872C4.82282 -0.0627789 4.45711 -0.0627789 4.33711 0.187872L3.65711 1.76632C3.56513 1.97234 3.4032 2.13722 3.20139 2.23035L2.33425 2.61327C2.2772 2.64038 2.22892 2.6836 2.19509 2.73785C2.16125 2.7921 2.14328 2.85511 2.14328 2.91946C2.14328 2.98381 2.16125 3.04682 2.19509 3.10106C2.22892 3.15531 2.2772 3.19854 2.33425 3.22565L3.20139 3.60856C3.41068 3.69699 3.57496 3.86652 3.65711 4.07333L4.33711 5.65835C4.46425 5.909 4.82996 5.909 4.94996 5.65835L5.62996 4.0726C5.71996 3.86652 5.88425 3.70429 6.08568 3.60856L6.95282 3.22565C7.00987 3.19854 7.05815 3.15531 7.09198 3.10106C7.12582 3.04682 7.1438 2.98381 7.1438 2.91946C7.1438 2.85511 7.12582 2.7921 7.09198 2.73785C7.05815 2.6836 7.00987 2.64038 6.95282 2.61327L6.08568 2.23035ZM16.8385 6.98249C16.2173 6.69799 15.7261 6.18106 15.4657 5.53777L13.4214 0.591983C13.3378 0.414585 13.207 0.264912 13.044 0.160167C12.881 0.0554211 12.6924 -0.000144958 12.5 -0.000144958C12.3075 -0.000144958 12.1189 0.0554211 11.9559 0.160167C11.7929 0.264912 11.6621 0.414585 11.5785 0.591983L9.53354 5.53777C9.26903 6.17808 8.7794 6.6936 8.16139 6.98249L5.57425 8.18094C4.80854 8.56824 4.80854 9.70092 5.57425 10.0882L8.16139 11.2867C8.78216 11.5718 9.27318 12.0885 9.53425 12.7314L11.5785 17.6772C11.6621 17.8546 11.7929 18.0042 11.9559 18.109C12.1189 18.2137 12.3075 18.2693 12.5 18.2693C12.6924 18.2693 12.881 18.2137 13.044 18.109C13.207 18.0042 13.3378 17.8546 13.4214 17.6772L15.4664 12.7314C15.7309 12.0911 16.2205 11.5756 16.8385 11.2867L19.4257 10.0882C20.1914 9.70092 20.1914 8.56824 19.4257 8.18094L16.8385 6.98249ZM4.48639 11.9334C4.60068 12.2199 4.81068 12.442 5.07354 12.5706L6.18068 13.1004C6.25555 13.1403 6.3183 13.2004 6.36209 13.2743C6.40588 13.3481 6.42903 13.4328 6.42903 13.5191C6.42903 13.6055 6.40588 13.6902 6.36209 13.764C6.3183 13.8379 6.25555 13.898 6.18068 13.9379L5.07354 14.4677C4.81068 14.5963 4.60139 14.8257 4.48639 15.1049L3.60925 17.2804C3.57422 17.3573 3.51844 17.4225 3.44847 17.4681C3.37849 17.5137 3.29723 17.538 3.21425 17.538C3.13127 17.538 3.05001 17.5137 2.98003 17.4681C2.91006 17.4225 2.85428 17.3573 2.81925 17.2804L1.94282 15.1049C1.83149 14.8251 1.62212 14.5979 1.35568 14.4677L0.248535 13.9379C0.173663 13.898 0.110917 13.8379 0.0671273 13.764C0.0233379 13.6902 0.000183105 13.6055 0.000183105 13.5191C0.000183105 13.4328 0.0233379 13.3481 0.0671273 13.2743C0.110917 13.2004 0.173663 13.1403 0.248535 13.1004L1.35568 12.5706C1.61854 12.442 1.82782 12.2125 1.94282 11.9334L2.81996 9.75792C2.85499 9.68096 2.91077 9.61582 2.98075 9.57019C3.05072 9.52455 3.13198 9.50031 3.21496 9.50031C3.29795 9.50031 3.37921 9.52455 3.44918 9.57019C3.51916 9.61582 3.57494 9.68096 3.60996 9.75792L4.48639 11.9334Z" fill="black"/>
</g>
<defs>
<clipPath id="clip0_3_4">
<rect width="20" height="19" fill="white"/>
</clipPath>
</defs>
</svg>
