<svg width="9" height="9" viewBox="0 0 9 9" fill="none" xmlns="http://www.w3.org/2000/svg">
<path d="M0 4.5C0 3.87859 0.115956 3.29584 0.347869 2.75173C0.582755 2.20763 0.905352 1.73043 1.31566 1.32012C1.72894 0.906838 2.20763 0.584242 2.75173 0.352329C3.29584 0.117443 3.87859 0 4.5 0C5.12141 0 5.70416 0.117443 6.24827 0.352329C6.79237 0.584242 7.26957 0.906838 7.67988 1.32012C8.09316 1.73043 8.41576 2.20763 8.64767 2.75173C8.88256 3.29584 9 3.87859 9 4.5C9 5.12141 8.88256 5.70416 8.64767 6.24827C8.41576 6.79237 8.09316 7.27106 7.67988 7.68434C7.26957 8.09465 6.79237 8.41576 6.24827 8.64767C5.70416 8.88256 5.12141 9 4.5 9C3.87859 9 3.29584 8.88256 2.75173 8.64767C2.20763 8.41576 1.72894 8.09465 1.31566 7.68434C0.905352 7.27106 0.582755 6.79237 0.347869 6.24827C0.115956 5.70416 0 5.12141 0 4.5ZM4.28147 0.64668C4.28741 0.768583 4.23835 0.859267 4.13429 0.918731L2.93013 1.58771C2.90634 1.5996 2.88107 1.61001 2.85431 1.61893L2.72944 1.65015L2.79633 2.13627L3.92022 2.35927C3.98563 2.37116 4.04063 2.40089 4.08523 2.44846L5.46333 1.75719C5.46333 1.75421 5.46333 1.75124 5.46333 1.74827V1.16402C5.46333 1.08077 5.49009 1.00942 5.54361 0.94995C5.59713 0.890486 5.66105 0.854807 5.73538 0.842914C5.33697 0.709118 4.92517 0.64222 4.5 0.64222C4.43162 0.64222 4.35877 0.643707 4.28147 0.64668ZM1.85976 1.69029C1.55352 1.97869 1.29782 2.31169 1.09267 2.6893C0.890486 3.0669 0.75669 3.47275 0.691279 3.90684L1.70813 3.39841C1.71407 3.38057 1.72299 3.36274 1.73489 3.3449L2.45292 2.27007C2.49752 2.20168 2.55847 2.15709 2.63578 2.13627L2.57334 1.68583L2.17641 1.7884C2.05154 1.81814 1.94599 1.78543 1.85976 1.69029ZM0.664519 4.09861C0.649653 4.22944 0.64222 4.36323 0.64222 4.5C0.64222 4.93409 0.712091 5.35183 0.851834 5.75322L1.72151 6.72101C1.75124 6.68831 1.78692 6.66155 1.82854 6.64073L2.40387 6.35084C2.4336 6.33598 2.4663 6.32557 2.50198 6.31962L2.63132 4.74975C2.54509 4.73489 2.47671 4.69326 2.42616 4.62488L1.74381 3.71952C1.71407 3.6779 1.69475 3.6333 1.68583 3.58573L0.664519 4.09861ZM1.65461 6.88603L1.03915 6.19921C1.22349 6.57681 1.46283 6.91427 1.75719 7.2116C1.72151 7.14024 1.69177 7.06591 1.66799 6.9886C1.65907 6.9559 1.65461 6.9217 1.65461 6.88603ZM4.5 8.35778C4.91328 8.35778 5.30724 8.29534 5.68186 8.17047C6.05946 8.04856 6.40436 7.8776 6.71655 7.65758L6.79683 7.02428C6.76115 7.03023 6.72398 7.02874 6.68533 7.01982L5.71754 6.80575C5.64916 6.79088 5.59118 6.75669 5.54361 6.70317L3.99158 7.42121C3.99158 7.42121 3.99158 7.4227 3.99158 7.42567C3.99158 7.42864 3.99158 7.43162 3.99158 7.43459L3.90684 8.02329C3.90089 8.06789 3.88454 8.10951 3.85778 8.14817C3.99158 8.22547 4.13726 8.29386 4.29485 8.35332C4.3662 8.35629 4.43459 8.35778 4.5 8.35778ZM6.9663 6.94846L6.89495 7.52379C7.2339 7.25619 7.52081 6.93806 7.7557 6.56938C7.99356 6.19772 8.16155 5.79485 8.25966 5.36075L7.79138 5.59713C7.78543 5.61497 7.778 5.63132 7.76908 5.64618L7.0332 6.87265C7.01536 6.90238 6.99306 6.92765 6.9663 6.94846ZM7.80476 5.40981L8.2998 5.16006C8.33845 4.94301 8.35778 4.72299 8.35778 4.5C8.35778 4.0778 8.29237 3.67493 8.16155 3.29138C8.0337 2.90783 7.8553 2.55699 7.62636 2.23885C7.61744 2.31318 7.58622 2.37711 7.53271 2.43062L7.25173 2.71606C7.18335 2.78147 7.10307 2.81269 7.0109 2.80971L7.13578 4.46432C7.16848 4.48513 7.19673 4.51189 7.22052 4.5446L7.7557 5.29386C7.77948 5.32953 7.79584 5.36819 7.80476 5.40981ZM2.79633 4.73191L2.66254 6.33746C2.68632 6.34638 2.70862 6.35828 2.72944 6.37314L3.84886 7.11794C3.90238 7.15362 3.94103 7.1997 3.96482 7.25619L5.47225 6.56046C5.4663 6.53667 5.46333 6.51437 5.46333 6.49356V5.2002C5.46333 5.15263 5.47374 5.10803 5.49455 5.0664L4.04509 4.21903C4.02428 4.23687 4.00198 4.25025 3.9782 4.25917L2.80079 4.73191H2.79633ZM4.15213 4.09415L5.59713 4.94153C5.61794 4.92369 5.64172 4.91031 5.66848 4.90139L6.83697 4.4331C6.87859 4.41526 6.92319 4.40783 6.97076 4.4108L6.84589 2.75619L5.61943 2.02032C5.57483 1.99356 5.53915 1.95788 5.51239 1.91328L4.16551 2.58672C4.17443 2.61645 4.17889 2.64618 4.17889 2.67592V3.96036C4.17889 4.00793 4.16997 4.05253 4.15213 4.09415Z" fill="black"/>
</svg>
