<svg width="22" height="22" viewBox="0 0 22 22" fill="none" xmlns="http://www.w3.org/2000/svg">
<path d="M21.3334 11.3333C21.3334 16.8562 16.8562 21.3333 11.3334 21.3333M21.3334 11.3333C21.3334 5.81047 16.8562 1.33331 11.3334 1.33331M21.3334 11.3333H1.33337M11.3334 21.3333C5.81053 21.3333 1.33337 16.8562 1.33337 11.3333M11.3334 21.3333C8.76561 18.6372 7.33337 15.0566 7.33337 11.3333C7.33337 7.61005 8.76561 4.02947 11.3334 1.33331M11.3334 21.3333C13.9011 18.6372 15.3334 15.0566 15.3334 11.3333C15.3334 7.61005 13.9011 4.02947 11.3334 1.33331M1.33337 11.3333C1.33337 5.81047 5.81053 1.33331 11.3334 1.33331" stroke="#06001A" stroke-width="1.33333" stroke-linecap="round" stroke-linejoin="round"/>
</svg>
