<svg width="9" height="9" viewBox="0 0 9 9" fill="none" xmlns="http://www.w3.org/2000/svg">
<path d="M5.85291 0.0561613L6.35245 0.423833C6.42183 0.472286 6.46207 0.539265 6.47317 0.624771C6.48705 0.707426 6.46901 0.782955 6.41906 0.851359L6.27336 1.04802L6.32747 1.0865L6.35661 1.12925C6.4704 1.29741 6.53423 1.48695 6.5481 1.69786C6.56475 1.90592 6.537 2.10543 6.46485 2.2964C6.8728 2.50731 7.21832 2.78378 7.50139 3.1258C7.78446 3.46497 8.00093 3.84119 8.15079 4.25446C8.30342 4.66774 8.38668 5.08814 8.40056 5.51567C8.40888 5.79783 8.38668 6.08285 8.33395 6.37072C8.28122 6.65573 8.19658 6.9322 8.08002 7.20012C8.34366 7.27422 8.5629 7.42528 8.73774 7.65329C8.91258 7.88416 9 8.1478 9 8.44422C9 8.59813 8.94727 8.72923 8.84181 8.83754C8.73636 8.94585 8.61008 9 8.463 9H0.541166C0.391304 9 0.263645 8.94585 0.158187 8.83754C0.052729 8.72923 0 8.59813 0 8.44422C0 8.20765 0.0568918 7.99104 0.170675 7.79438C0.284459 7.59772 0.435708 7.44238 0.624422 7.32837C0.815911 7.21152 1.02821 7.15309 1.26133 7.15309H3.44265L1.20722 5.53704C1.12118 5.47719 1.06984 5.39453 1.05319 5.28908C1.03654 5.18362 1.05735 5.08814 1.11563 5.00263C1.17669 4.91428 1.25717 4.86155 1.35708 4.84445C1.45976 4.8245 1.55412 4.84588 1.64015 4.90858L4.72063 7.13171C4.76781 7.12031 4.8136 7.11176 4.858 7.10606C5.1494 7.07756 5.3839 7.01201 5.56152 6.9094C5.74191 6.80679 5.88205 6.69421 5.98196 6.57165C6.19843 6.30089 6.30111 5.97169 6.29001 5.58407C6.27891 5.25345 6.18039 4.95418 5.99445 4.68627C5.81129 4.4155 5.54487 4.24021 5.19519 4.16041L5.13275 4.24591V4.25019C4.93848 4.51811 4.68871 4.70337 4.38344 4.80597C4.07817 4.90573 3.77567 4.91285 3.47595 4.82735C3.37604 4.95561 3.24422 5.03256 3.08048 5.05821C2.91674 5.08101 2.76827 5.04254 2.63506 4.94278C2.4963 4.84302 2.41443 4.70907 2.38945 4.54091C2.36448 4.3699 2.40333 4.21456 2.50601 4.0749L2.53099 4.0407C2.40611 3.79274 2.35199 3.52482 2.36864 3.23695C2.38807 2.94909 2.4852 2.68402 2.66004 2.44175L3.83395 0.78723V0.782955C3.98659 0.574893 4.19056 0.420983 4.44588 0.321227C4.7012 0.221471 4.95375 0.210071 5.20352 0.287025L5.25347 0.299851L5.28261 0.321227L5.43247 0.12029C5.48242 0.0547363 5.54764 0.0162589 5.62812 0.00485825C5.71138 -0.00939261 5.78631 0.00770842 5.85291 0.0561613ZM6.88945 5.56697C6.89778 5.82063 6.86448 6.0686 6.78955 6.31086C6.71739 6.55313 6.60222 6.77117 6.44403 6.96498C6.3913 7.03053 6.33441 7.09324 6.27336 7.15309H7.43062C7.56383 6.90227 7.66096 6.64006 7.72202 6.36644C7.78307 6.08997 7.80944 5.81208 7.80111 5.53277C7.79001 5.16509 7.71924 4.8074 7.58881 4.45968C7.45837 4.10911 7.27105 3.79131 7.02683 3.50629C6.78538 3.22128 6.48982 2.99326 6.14015 2.82225L5.56984 3.63028C5.85014 3.73003 6.08742 3.88109 6.28168 4.08345C6.47595 4.28297 6.62303 4.51098 6.72294 4.7675C6.82562 5.02401 6.88113 5.2905 6.88945 5.56697ZM8.40056 8.38436C8.3839 8.2105 8.31314 8.06372 8.18825 7.94401C8.06337 7.82715 7.91489 7.76873 7.74283 7.76873H1.26133C1.08927 7.76873 0.939408 7.82715 0.811748 7.94401C0.686864 8.06372 0.617484 8.2105 0.603608 8.38436H8.40056ZM4.98289 0.85991C4.87188 0.837108 4.75393 0.851359 4.62905 0.902662C4.50416 0.953965 4.40287 1.03377 4.32516 1.14208L3.48844 2.32205L4.9704 3.42934L5.81545 2.23227C5.89593 2.12396 5.94033 2.00283 5.94866 1.86887C5.95698 1.73206 5.9334 1.61378 5.87789 1.51402L4.98289 0.85991ZM4.61656 3.92527L3.1346 2.82225C2.99584 3.02747 2.94727 3.25405 2.9889 3.50202C3.03053 3.74998 3.15264 3.94807 3.35523 4.09628C3.55504 4.24164 3.77706 4.29722 4.02128 4.26301C4.26549 4.22881 4.46392 4.11623 4.61656 3.92527Z" fill="black"/>
</svg>
