<svg width="819" height="97" viewBox="0 0 819 97" fill="none" xmlns="http://www.w3.org/2000/svg">
<path d="M263.625 5.375L239.938 95H217.562L202.688 37.5C201.896 34.5 201.417 31.1458 201.25 27.4375H201C200.625 31.5208 200.083 34.875 199.375 37.5L184.125 95H160.812L137.25 5.375H159.312L171.938 65.0625C172.479 67.6042 172.875 71.0208 173.125 75.3125H173.5C173.667 72.1042 174.271 68.6042 175.312 64.8125L191.562 5.375H213.188L227.875 65.5625C228.417 67.7708 228.896 70.9792 229.312 75.1875H229.562C229.729 71.8958 230.167 68.5625 230.875 65.1875L243.25 5.375H263.625Z" fill="black"/>
<path d="M327.062 68.625H285.312C285.979 77.9167 291.833 82.5625 302.875 82.5625C309.917 82.5625 316.104 80.8958 321.438 77.5625V91.8125C315.521 94.9792 307.833 96.5625 298.375 96.5625C288.042 96.5625 280.021 93.7083 274.312 88C268.604 82.25 265.75 74.25 265.75 64C265.75 53.375 268.833 44.9583 275 38.75C281.167 32.5417 288.75 29.4375 297.75 29.4375C307.083 29.4375 314.292 32.2083 319.375 37.75C324.5 43.2917 327.062 50.8125 327.062 60.3125V68.625ZM308.75 56.5C308.75 47.3333 305.042 42.75 297.625 42.75C294.458 42.75 291.708 44.0625 289.375 46.6875C287.083 49.3125 285.688 52.5833 285.188 56.5H308.75Z" fill="black"/>
<path d="M334.625 93.3125V77.3125C337.875 79.2708 341.104 80.7292 344.312 81.6875C347.562 82.6458 350.625 83.125 353.5 83.125C357 83.125 359.75 82.6458 361.75 81.6875C363.792 80.7292 364.812 79.2708 364.812 77.3125C364.812 76.0625 364.354 75.0208 363.438 74.1875C362.521 73.3542 361.333 72.625 359.875 72C358.458 71.375 356.896 70.8125 355.188 70.3125C353.479 69.8125 351.833 69.25 350.25 68.625C347.708 67.6667 345.458 66.6458 343.5 65.5625C341.583 64.4375 339.958 63.1458 338.625 61.6875C337.333 60.2292 336.333 58.5417 335.625 56.625C334.958 54.7083 334.625 52.4375 334.625 49.8125C334.625 46.2292 335.396 43.1458 336.938 40.5625C338.521 37.9792 340.604 35.875 343.188 34.25C345.812 32.5833 348.792 31.375 352.125 30.625C355.5 29.8333 359 29.4375 362.625 29.4375C365.458 29.4375 368.333 29.6667 371.25 30.125C374.167 30.5417 377.042 31.1667 379.875 32V47.25C377.375 45.7917 374.688 44.7083 371.812 44C368.979 43.25 366.188 42.875 363.438 42.875C362.146 42.875 360.917 43 359.75 43.25C358.625 43.4583 357.625 43.7917 356.75 44.25C355.875 44.6667 355.188 45.2292 354.688 45.9375C354.188 46.6042 353.938 47.375 353.938 48.25C353.938 49.4167 354.312 50.4167 355.062 51.25C355.812 52.0833 356.792 52.8125 358 53.4375C359.208 54.0208 360.542 54.5625 362 55.0625C363.5 55.5208 364.979 56 366.438 56.5C369.062 57.4167 371.438 58.4167 373.562 59.5C375.688 60.5833 377.5 61.8542 379 63.3125C380.542 64.7708 381.708 66.4792 382.5 68.4375C383.333 70.3958 383.75 72.7292 383.75 75.4375C383.75 79.2292 382.917 82.4792 381.25 85.1875C379.625 87.8542 377.438 90.0417 374.688 91.75C371.979 93.4167 368.833 94.625 365.25 95.375C361.708 96.1667 358.021 96.5625 354.188 96.5625C347.146 96.5625 340.625 95.4792 334.625 93.3125Z" fill="black"/>
<path d="M456.625 95H436.938V58.625C436.938 49.25 433.521 44.5625 426.688 44.5625C423.188 44.5625 420.354 45.875 418.188 48.5C416.021 51.125 414.938 54.4583 414.938 58.5V95H395.188V0.25H414.938V40.5H415.188C420.021 33.125 426.583 29.4375 434.875 29.4375C449.375 29.4375 456.625 38.1875 456.625 55.6875V95Z" fill="black"/>
<path d="M554.875 95H534.5L497.562 38.6875C495.396 35.3958 493.896 32.9167 493.062 31.25H492.812C493.146 34.4167 493.312 39.25 493.312 45.75V95H474.25V5.375H496L531.562 59.9375C533.188 62.3958 534.688 64.8333 536.062 67.25H536.312C535.979 65.1667 535.812 61.0625 535.812 54.9375V5.375H554.875V95Z" fill="black"/>
<path d="M630.938 68.625H589.188C589.854 77.9167 595.708 82.5625 606.75 82.5625C613.792 82.5625 619.979 80.8958 625.312 77.5625V91.8125C619.396 94.9792 611.708 96.5625 602.25 96.5625C591.917 96.5625 583.896 93.7083 578.188 88C572.479 82.25 569.625 74.25 569.625 64C569.625 53.375 572.708 44.9583 578.875 38.75C585.042 32.5417 592.625 29.4375 601.625 29.4375C610.958 29.4375 618.167 32.2083 623.25 37.75C628.375 43.2917 630.938 50.8125 630.938 60.3125V68.625ZM612.625 56.5C612.625 47.3333 608.917 42.75 601.5 42.75C598.333 42.75 595.583 44.0625 593.25 46.6875C590.958 49.3125 589.562 52.5833 589.062 56.5H612.625Z" fill="black"/>
<path d="M706.812 95H683.125L662.688 63.25H662.438V95H642.688V0.25H662.438V60.5625H662.688L681.75 31H705.188L682.25 61.0625L706.812 95Z" fill="black"/>
<path d="M756.062 48.8125C753.688 47.5208 750.917 46.875 747.75 46.875C743.458 46.875 740.104 48.4583 737.688 51.625C735.271 54.75 734.062 59.0208 734.062 64.4375V95H714.312V31H734.062V42.875H734.312C737.438 34.2083 743.062 29.875 751.188 29.875C753.271 29.875 754.896 30.125 756.062 30.625V48.8125Z" fill="black"/>
<path d="M818.562 95H799.875V85.8125H799.625C795.333 92.9792 788.979 96.5625 780.562 96.5625C774.354 96.5625 769.458 94.8125 765.875 91.3125C762.333 87.7708 760.562 83.0625 760.562 77.1875C760.562 64.7708 767.917 57.6042 782.625 55.6875L800 53.375C800 46.375 796.208 42.875 788.625 42.875C781 42.875 773.75 45.1458 766.875 49.6875V34.8125C769.625 33.3958 773.375 32.1458 778.125 31.0625C782.917 29.9792 787.271 29.4375 791.188 29.4375C809.438 29.4375 818.562 38.5417 818.562 56.75V95ZM800 69V64.6875L788.375 66.1875C781.958 67.0208 778.75 69.9167 778.75 74.875C778.75 77.125 779.521 78.9792 781.062 80.4375C782.646 81.8542 784.771 82.5625 787.438 82.5625C791.146 82.5625 794.167 81.2917 796.5 78.75C798.833 76.1667 800 72.9167 800 69Z" fill="black"/>
<path fill-rule="evenodd" clip-rule="evenodd" d="M64.0062 0C60.9392 0 57.9106 0.681878 55.1395 1.99628L3.69189 26.3687C2.74671 26.8147 1.95523 27.5313 1.41779 28.4277C0.880343 29.324 0.621133 30.3598 0.673012 31.4036V63.3337C0.673012 64.7334 1.22906 66.0759 2.21883 67.0656C3.20861 68.0554 4.55103 68.6114 5.95078 68.6114C7.35053 68.6114 8.69295 68.0554 9.68272 67.0656C10.6725 66.0759 11.2285 64.7334 11.2285 63.3337V39.6474L54.8018 61.2649C57.662 62.6857 60.8124 63.4251 64.0062 63.4251C67.1999 63.4251 70.3503 62.6857 73.2106 61.2649L124.405 35.8686C125.293 35.4285 126.04 34.7471 126.559 33.9023C127.078 33.0576 127.349 32.0837 127.34 31.0922C127.331 30.1007 127.043 29.1317 126.509 28.2963C125.975 27.4609 125.217 26.7929 124.32 26.3687L72.8728 1.99628C70.1018 0.681878 67.0732 0 64.0062 0ZM21.7841 73.8891V56.6733L50.1151 70.7225C54.4322 72.8653 59.1865 73.9802 64.0062 73.9802C68.8258 73.9802 73.5801 72.8653 77.8972 70.7225L106.228 56.6627V73.8891C106.23 74.5827 106.094 75.2696 105.83 75.9108C105.565 76.5519 105.177 77.1347 104.687 77.6257L104.666 77.6363L104.423 77.8791L103.79 78.4702C100.483 81.4203 96.907 84.0531 93.1078 86.3339C86.0461 90.5667 75.86 94.9999 64.0062 94.9999C52.1523 94.9999 41.9768 90.5667 34.9046 86.3339C31.3474 84.1912 28.4974 82.059 26.5235 80.444C25.5242 79.6207 24.7607 78.9627 24.2329 78.4702L23.5996 77.8791L23.3568 77.6574L23.3357 77.6257C22.844 77.1356 22.4539 76.5532 22.1876 75.912C21.9213 75.2708 21.7842 74.5834 21.7841 73.8891ZM61.2969 36.4703V38.5814L64.7275 38.2296V36.9453C64.7275 35.6259 65.0089 34.5 65.5367 33.5676C66.0821 32.6 66.7506 31.738 67.5775 30.9639L69.9525 28.5714C70.7629 27.7413 71.4501 26.7993 71.9932 25.7742C72.5386 24.7186 72.8024 23.4344 72.8024 21.9215C72.8024 19.5465 71.9404 17.6465 70.2339 16.2391C68.5099 14.7966 66.1349 14.0753 63.0562 14.0753C61.6879 14.0782 60.3244 14.2375 58.9923 14.5503C57.6717 14.8651 56.3995 15.3562 55.2099 16.0104L55.7553 19.1771C57.0747 18.5965 58.3062 18.1743 59.4497 17.928C60.6284 17.6641 61.7191 17.541 62.7395 17.541C65.0265 17.541 66.6451 18.016 67.5775 18.9835C68.0636 19.4964 68.4418 20.1017 68.6896 20.7636C68.9374 21.4254 69.0498 22.1302 69.0201 22.8363C69.0201 23.7159 68.7386 24.5251 68.1932 25.2992C67.633 26.1194 66.9969 26.8851 66.2932 27.5862C66.0913 27.8025 65.8868 28.0201 65.6803 28.2398C65.1313 28.824 64.5687 29.4226 64.0062 30.0491C63.2497 30.8936 62.5988 31.8435 62.071 32.8991C61.5608 33.9194 61.2969 35.1157 61.2969 36.4703ZM60.9451 48.3451C61.508 48.9609 62.2117 49.2599 63.0562 49.2599C63.8654 49.2599 64.5691 48.9609 65.1321 48.3451C65.7126 47.7294 65.9941 47.0081 65.9941 46.1285C65.9941 45.2665 65.7126 44.5276 65.1321 43.9119C64.5691 43.3137 63.8654 42.9971 63.0562 42.9971C62.2117 42.9971 61.508 43.3137 60.9451 43.9119C60.3645 44.5276 60.0654 45.2489 60.0654 46.1285C60.0592 46.5377 60.1337 46.944 60.2846 47.3244C60.4356 47.7047 60.66 48.0516 60.9451 48.3451Z" fill="black"/>
</svg>
